<svg width="312" height="86" viewBox="0 0 312 86" fill="none" xmlns="http://www.w3.org/2000/svg">
<path d="M13.68 25.76C15.0133 23.68 16.8533 22 19.2 20.72C21.5467 19.44 24.2933 18.8 27.44 18.8C31.12 18.8 34.4533 19.7333 37.44 21.6C40.4267 23.4667 42.7733 26.1333 44.48 29.6C46.24 33.0667 47.12 37.0933 47.12 41.68C47.12 46.2667 46.24 50.32 44.48 53.84C42.7733 57.3067 40.4267 60 37.44 61.92C34.4533 63.7867 31.12 64.72 27.44 64.72C24.3467 64.72 21.6 64.08 19.2 62.8C16.8533 61.52 15.0133 59.8667 13.68 57.84V85.36H0V19.44H13.68V25.76ZM33.2 41.68C33.2 38.2667 32.24 35.6 30.32 33.68C28.4533 31.7067 26.1333 30.72 23.36 30.72C20.64 30.72 18.32 31.7067 16.4 33.68C14.5333 35.6533 13.6 38.3467 13.6 41.76C13.6 45.1733 14.5333 47.8667 16.4 49.84C18.32 51.8133 20.64 52.8 23.36 52.8C26.08 52.8 28.4 51.8133 30.32 49.84C32.24 47.8133 33.2 45.0933 33.2 41.68Z" fill="#161616"/>
<path d="M51.5769 41.68C51.5769 37.0933 52.4302 33.0667 54.1369 29.6C55.8969 26.1333 58.2702 23.4667 61.2569 21.6C64.2435 19.7333 67.5769 18.8 71.2569 18.8C74.4035 18.8 77.1502 19.44 79.4969 20.72C81.8969 22 83.7369 23.68 85.0169 25.76V19.44H98.6969V64.08H85.0169V57.76C83.6835 59.84 81.8169 61.52 79.4169 62.8C77.0702 64.08 74.3235 64.72 71.1769 64.72C67.5502 64.72 64.2435 63.7867 61.2569 61.92C58.2702 60 55.8969 57.3067 54.1369 53.84C52.4302 50.32 51.5769 46.2667 51.5769 41.68ZM85.0169 41.76C85.0169 38.3467 84.0569 35.6533 82.1369 33.68C80.2702 31.7067 77.9769 30.72 75.2569 30.72C72.5369 30.72 70.2169 31.7067 68.2969 33.68C66.4302 35.6 65.4969 38.2667 65.4969 41.68C65.4969 45.0933 66.4302 47.8133 68.2969 49.84C70.2169 51.8133 72.5369 52.8 75.2569 52.8C77.9769 52.8 80.2702 51.8133 82.1369 49.84C84.0569 47.8667 85.0169 45.1733 85.0169 41.76Z" fill="#161616"/>
<path d="M132.467 41.68C132.467 37.0933 133.321 33.0667 135.027 29.6C136.787 26.1333 139.161 23.4667 142.147 21.6C145.134 19.7333 148.467 18.8 152.147 18.8C155.294 18.8 158.041 19.44 160.387 20.72C162.787 22 164.628 23.68 165.908 25.76V19.44H179.587V64.08H165.908V57.76C164.574 59.84 162.707 61.52 160.307 62.8C157.961 64.08 155.214 64.72 152.067 64.72C148.441 64.72 145.134 63.7867 142.147 61.92C139.161 60 136.787 57.3067 135.027 53.84C133.321 50.32 132.467 46.2667 132.467 41.68ZM165.908 41.76C165.908 38.3467 164.947 35.6533 163.027 33.68C161.161 31.7067 158.867 30.72 156.147 30.72C153.427 30.72 151.107 31.7067 149.188 33.68C147.321 35.6 146.387 38.2667 146.387 41.68C146.387 45.0933 147.321 47.8133 149.188 49.84C151.107 51.8133 153.427 52.8 156.147 52.8C158.867 52.8 161.161 51.8133 163.027 49.84C164.947 47.8667 165.908 45.1733 165.908 41.76Z" fill="#161616"/>
<path d="M186.764 41.68C186.764 37.0933 187.618 33.0667 189.324 29.6C191.084 26.1333 193.458 23.4667 196.444 21.6C199.431 19.7333 202.764 18.8 206.444 18.8C209.378 18.8 212.044 19.4133 214.444 20.64C216.898 21.8667 218.818 23.52 220.204 25.6V4.88H233.884V64.08H220.204V57.68C218.924 59.8133 217.084 61.52 214.684 62.8C212.338 64.08 209.591 64.72 206.444 64.72C202.764 64.72 199.431 63.7867 196.444 61.92C193.458 60 191.084 57.3067 189.324 53.84C187.618 50.32 186.764 46.2667 186.764 41.68ZM220.204 41.76C220.204 38.3467 219.244 35.6533 217.324 33.68C215.458 31.7067 213.164 30.72 210.444 30.72C207.724 30.72 205.404 31.7067 203.484 33.68C201.618 35.6 200.684 38.2667 200.684 41.68C200.684 45.0933 201.618 47.8133 203.484 49.84C205.404 51.8133 207.724 52.8 210.444 52.8C213.164 52.8 215.458 51.8133 217.324 49.84C219.244 47.8667 220.204 45.1733 220.204 41.76Z" fill="#161616"/>
<path d="M250.661 14.8C248.261 14.8 246.288 14.1067 244.741 12.72C243.248 11.28 242.501 9.52 242.501 7.44001C242.501 5.30667 243.248 3.54667 244.741 2.16C246.288 0.720001 248.261 0 250.661 0C253.008 0 254.928 0.720001 256.421 2.16C257.968 3.54667 258.741 5.30667 258.741 7.44001C258.741 9.52 257.968 11.28 256.421 12.72C254.928 14.1067 253.008 14.8 250.661 14.8ZM257.461 19.44V64.08H243.781V19.44H257.461Z" fill="#161616"/>
<path d="M294.575 18.96C299.802 18.96 303.962 20.6667 307.055 24.08C310.202 27.44 311.775 32.08 311.775 38V64.08H298.175V39.84C298.175 36.8533 297.402 34.5333 295.855 32.88C294.308 31.2267 292.228 30.4 289.615 30.4C287.002 30.4 284.922 31.2267 283.375 32.88C281.828 34.5333 281.055 36.8533 281.055 39.84V64.08H267.375V19.44H281.055V25.36C282.442 23.3867 284.308 21.84 286.655 20.72C289.002 19.5467 291.642 18.96 294.575 18.96Z" fill="#161616"/>
<path d="M127.666 5.08002L122.72 64.28H109.04L113.986 5.08002H127.666Z" fill="#16B2D3"/>
</svg>
